<?xml version="1.0" encoding="utf-8"?>
<!-- Generator: Adobe Illustrator 16.0.3, SVG Export Plug-In . SVG Version: 6.00 Build 0)  -->
<svg version="1.2" baseProfile="tiny" id="Capa_1" xmlns="http://www.w3.org/2000/svg" xmlns:xlink="http://www.w3.org/1999/xlink"
	 x="0px" y="0px" width="800px" height="400px" viewBox="0 0 800 400" xml:space="preserve">
<g>
	<g>
		<polygon fill="#D9D9D9" points="88.822,205.092 188.272,151.727 185.203,146.226 87.341,198.739 		"/>
		<g>
			<path fill="#949292" d="M88.822,205.092c3.493-1.874,0.615-8.017,0.615-8.017l87.824-47.126l-44.715-80.154l-95.435,51.21
				l45.742,81.994C84.116,204.397,86.456,206.362,88.822,205.092z"/>
		</g>
		<polygon fill="#D9D9D9" points="185.497,146.812 90.062,198.023 41.168,110.382 136.604,59.171 		"/>
		<g>
			<g>
				<path fill="#556375" d="M63.175,125.391l-6.321-11.331l3.051-1.637l4.715,2.865c1.352,0.825,2.825,1.868,4.052,2.871
					l0.052-0.028c-1.006-1.403-1.911-2.906-2.858-4.603l-1.847-3.312l2.399-1.288l6.32,11.33l-2.742,1.472l-4.906-3.047
					c-1.36-0.842-2.93-1.9-4.237-2.924l-0.042,0.045c0.903,1.459,1.828,3.037,2.859,4.886l1.904,3.414L63.175,125.391z"/>
				<path fill="#556375" d="M79.201,110.566l-4.25,2.28l1.5,2.69l4.748-2.548l1.172,2.102L75,119.045l-6.32-11.33l7.13-3.826
					l1.171,2.102l-4.508,2.418l1.313,2.354l4.25-2.282L79.201,110.566z"/>
				<path fill="#556375" d="M86.14,113.066l-9.062-9.857l2.793-1.5l3.481,4.204c1.008,1.207,2.063,2.541,2.89,3.582l0.034-0.018
					c-0.497-1.328-0.981-2.836-1.468-4.389l-1.612-5.164l2.777-1.489l3.589,4.277c0.999,1.19,1.862,2.299,2.736,3.467l0.035-0.018
					c-0.532-1.353-1.017-2.818-1.526-4.292l-1.646-5.146l2.658-1.427l3.337,12.931l-2.828,1.517l-3.697-4.35
					c-0.861-1.024-1.639-1.981-2.499-3.202l-0.035,0.018c0.507,1.388,0.919,2.565,1.282,3.856l1.623,5.463L86.14,113.066z"/>
				<path fill="#556375" d="M97.968,103.292c0.899-0.025,2.177-0.25,3.291-0.849c1.2-0.644,1.562-1.472,1.15-2.212
					c-0.395-0.706-1.168-0.813-2.828-0.557c-2.286,0.374-4.118,0.004-5.038-1.644c-1.078-1.933-0.259-4.296,2.467-5.758
					c1.303-0.699,2.412-0.945,3.267-1.01l0.571,2.381c-0.584,0.03-1.586,0.151-2.717,0.759c-1.131,0.606-1.398,1.405-1.07,1.994
					c0.403,0.723,1.234,0.693,3.033,0.447c2.453-0.355,3.993,0.172,4.885,1.77c1.059,1.9,0.468,4.313-2.702,6.015
					c-1.32,0.708-2.81,1.071-3.658,1.067L97.968,103.292z"/>
			</g>
			<polygon fill="#548182" points="139.207,81.58 110.528,96.968 106.784,90.257 135.464,74.868 			"/>
		</g>
		<polygon fill="#949292" points="148.222,87.763 62.33,133.852 60.179,129.996 146.071,83.908 		"/>
		<polygon fill="#548182" points="124.39,138.331 78.835,162.777 63.864,135.942 109.42,111.496 		"/>
		<polygon fill="#949292" points="151.17,93.047 113.512,113.253 111.815,110.211 149.472,90.004 		"/>
		<polygon fill="#949292" points="155.594,100.978 117.937,121.186 116.239,118.143 153.896,97.935 		"/>
		<polygon fill="#949292" points="160.019,108.909 122.36,129.116 120.663,126.073 158.321,105.866 		"/>
		<polygon fill="#949292" points="164.442,116.839 126.785,137.047 125.087,134.004 162.746,113.796 		"/>
		<polygon fill="#EE6C38" points="170.61,134.002 88.613,178.003 82.45,166.957 164.447,122.957 		"/>
		<polygon fill="#548182" points="128.537,169.785 94.283,188.166 90.831,181.98 125.085,163.599 		"/>
		<polygon fill="#548182" points="176.28,144.166 140.844,163.181 137.393,156.996 172.829,137.98 		"/>
		<polygon fill="#949292" points="132.087,176.08 97.802,194.476 96.105,191.434 130.389,173.037 		"/>
		<polygon fill="#949292" points="179.801,150.477 145.515,168.874 143.818,165.83 178.103,147.434 		"/>
	</g>
	<g>
		<path d="M61.93,333.121c0,2.043-1.691,3.7-3.777,3.7H50.51c-2.086,0-3.777-1.657-3.777-3.7v-25.493
			c0-2.045,1.691-3.702,3.777-3.702h7.643c2.086,0,3.777,1.657,3.777,3.702V333.121z"/>
		<path d="M192.513,333.121c0,2.043-1.69,3.7-3.776,3.7h-7.642c-2.086,0-3.777-1.657-3.777-3.7v-25.493
			c0-2.045,1.691-3.702,3.777-3.702h7.642c2.086,0,3.776,1.657,3.776,3.702V333.121z"/>
	</g>
	<path fill="#636363" d="M45.573,156.065l8.16,163.569c0,10.039,8.299,18.179,18.535,18.179h4.162h86.39h4.16
		c10.238,0,18.536-8.14,18.536-18.179l7.343-163.569H45.573z"/>
	<path fill="#636363" d="M199.891,151.097c0,2.744-2.269,4.968-5.067,4.968H44.422c-2.798,0-5.066-2.225-5.066-4.968v-6.945
		c0-2.744,2.268-4.969,5.066-4.969h150.402c2.798,0,5.067,2.225,5.067,4.969V151.097z"/>
	<path fill="#424242" d="M192.792,157.538c0-0.248,0.076-1.226,0.066-1.472H45.573c0,0.903,0,0.903,0,1.151v2.282l146.274,19.103
		L192.792,157.538z"/>
	<g>
		<path fill="#FFFFFF" d="M125.58,266.826l-5.416,3.74l7.103-0.831l0.313-0.038l0.906-0.104l6.315-0.741l2.709-5.319l0.284-0.558
			l3.592-7.06l-5.508,3.803l-4.75-8.069c-1.274-1.927-2.613-2.77-3.932-2.903c-2.336-0.113-4.712,1.945-6.401,3.956
			c-0.462,0.576-0.883,1.158-1.255,1.711c-0.146,0.219-0.288,0.432-0.418,0.636c0.13,0.263,0.271,0.546,0.418,0.834
			c0.199,0.396,0.41,0.804,0.639,1.239C121.565,259.771,123.466,263.16,125.58,266.826z"/>
		<path fill="#FFFFFF" d="M139.91,292.294c-0.703-0.051-1.496-0.1-2.361-0.14c-3.033-0.146-6.975-0.227-11.27-0.263l-0.593-6.472
			l-2.817,6.451l-0.123,0.283l-0.361,0.822l-2.505,5.734l3.344,4.961l0.351,0.52l4.438,6.579l-0.605-6.579h9.502
			c2.339-0.116,3.75-0.834,4.53-1.889c1.268-1.927,0.638-4.974-0.294-7.414C140.757,293.938,140.317,293.05,139.91,292.294z"/>
		<path fill="#FFFFFF" d="M150.789,287.948c0.012-0.74-0.148-1.181-0.247-1.39l-0.117-0.199l-8.449-14.354l-9.752,5.077
			c0.605,0.995,1.338,2.26,2.114,3.615l5.335,9.063c0.19,0.282,0.625,0.96,1.138,1.883l0.03,0.004l0.158,0.284
			c0.392,0.701,0.84,1.63,1.231,2.656c0.787,1.968,1.426,4.222,1.006,6.187L150.789,287.948z"/>
		<path fill="#FFFFFF" d="M119.539,252.481c0.145-0.184,0.292-0.369,0.448-0.555c1.345-1.649,3.014-3.318,4.959-3.945h-5.407h-9.696
			c-0.657,0.361-0.969,0.716-1.104,0.905l-0.116,0.196l-8.449,14.354l9.358,5.745c0.576-1.013,1.328-2.268,2.135-3.604l5.334-9.063
			c0.154-0.304,0.535-1.011,1.094-1.908l-0.014-0.026l0.173-0.277C118.587,253.771,119.026,253.136,119.539,252.481z"/>
		<path fill="#FFFFFF" d="M95.914,292.323c1.034,0.147,2.041,0.22,2.909,0.249c0.397-0.571,0.835-1.221,1.303-1.932
			c1.646-2.505,3.688-5.814,5.868-9.443l6.01,2.73l-4.286-5.618l-0.19-0.246l-0.545-0.717l-3.813-4.994l-6.05,0.361l-0.634,0.036
			l-8.029,0.478l6.111,2.778l-4.75,8.068c-1.066,2.045-1.138,3.605-0.597,4.792C90.291,290.907,93.296,291.895,95.914,292.323z"/>
		<path fill="#FFFFFF" d="M111.849,293.64h-10.671c-0.345,0.02-1.16,0.052-2.23,0.025l-0.019,0.023l-0.331-0.009
			c-0.817-0.018-1.86-0.102-2.964-0.282c-2.13-0.314-4.439-0.899-5.963-2.239l7.553,12.827c0.644,0.378,1.117,0.465,1.348,0.486
			h0.233h16.899l0.395-10.819C114.918,293.665,113.434,293.659,111.849,293.64z"/>
	</g>
	<text transform="matrix(1.0196 0 0 1 95.6631 205.2368)" fill="#FFFFFF" font-family="'Shruti-Bold'" font-size="18.0785">Papel</text>
	<text transform="matrix(1.0196 0 0 1 95.6631 226.9312)" fill="#FFFFFF" font-family="'Shruti-Bold'" font-size="18.0785">Carton</text>
</g>
<g>
	<g>
		<g>
			<g>
				<polygon fill="#77A4B5" points="292.197,58.818 301.495,56.746 301.569,56.064 302.483,56.526 304.142,56.156 304.161,57.375 
					308.146,59.391 308.114,60.229 292.167,59.658 				"/>
				<path fill="#8FC4DB" d="M291.514,77.852l0.653-18.194l15.947,0.571l-0.652,18.195c0,0,14.053,10.292,13.443,27.268
					c-0.608,16.977-2.528,70.477-2.528,70.477l0,0c-0.245,4.478-10.36,7.741-22.669,7.3c-12.308-0.442-22.164-4.424-22.086-8.906h0
					c0,0,1.92-53.501,2.528-70.477C276.761,87.109,291.514,77.852,291.514,77.852z"/>
			</g>
			<path fill="#B2D9E7" d="M289.719,56.154c-0.051,1.42,1.059,2.613,2.478,2.665l15.949,0.572c1.421,0.051,2.613-1.06,2.664-2.48
				l0,0c0.051-1.421-1.059-2.615-2.48-2.665l-15.947-0.571C290.962,53.623,289.77,54.732,289.719,56.154L289.719,56.154z"/>
			<g>
				<polygon fill="#FFFFFF" points="300.287,77.887 300.925,60.846 306.004,61.035 305.369,78.069 				"/>
				<path fill="#FFFFFF" d="M307.189,88.335c-1.146-1.853-2.312-3.308-3.303-4.391l6.662,0.238c0.266,0.39,0.536,0.796,0.802,1.22
					c1.967,3.124,3.498,6.598,4.549,10.323c0.792,2.816,1.311,5.784,1.554,8.868l-5.111-0.184
					C311.8,98.396,310.078,93.008,307.189,88.335z"/>
				<path fill="#FFFFFF" d="M310.15,175.816l2.346-65.358c0-0.038,0.001-0.076,0.001-0.115l5.082,0.182
					c-0.002,0.039-0.002,0.076-0.004,0.114l-2.366,65.963c0,0-5.052,5.029-20.251,4.484
					C294.957,181.086,307.819,179.081,310.15,175.816z"/>
			</g>
		</g>
		<g>
			<g>
				<polygon fill="#77A4B5" points="255.916,73.466 246.422,72.696 246.254,72.031 245.414,72.615 243.719,72.478 243.868,73.688 
					240.199,76.233 240.345,77.06 256.061,74.293 				"/>
				<path fill="#8FC4DB" d="M259.218,92.224l-3.158-17.93l-15.716,2.766l3.156,17.931c0,0-12.499,12.132-9.554,28.862
					c2.945,16.729,12.228,69.454,12.228,69.454h0.001c0.858,4.4,11.328,6.238,23.457,4.103c12.128-2.135,21.342-7.438,20.646-11.867
					l0.002,0c0,0-9.282-52.725-12.229-69.455C275.109,99.357,259.218,92.224,259.218,92.224z"/>
			</g>
			<path fill="#B2D9E7" d="M258.004,70.485c0.246,1.4-0.689,2.734-2.089,2.98l-15.716,2.767c-1.4,0.247-2.735-0.688-2.981-2.089l0,0
				c-0.246-1.399,0.689-2.734,2.089-2.98l15.716-2.767C256.423,68.151,257.758,69.086,258.004,70.485L258.004,70.485z"/>
			<g>
				<polygon fill="#FFFFFF" points="250.533,93.469 247.551,76.679 242.546,77.568 245.527,94.351 				"/>
				<path fill="#FFFFFF" d="M245.141,104.77c0.877-1.993,1.833-3.596,2.663-4.806l-6.563,1.156
					c-0.211,0.423-0.421,0.862-0.626,1.318c-1.518,3.366-2.554,7.016-3.081,10.852c-0.397,2.899-0.503,5.909-0.316,8.997
					l5.037-0.886C241.959,115.37,242.924,109.796,245.141,104.77z"/>
				<path fill="#FFFFFF" d="M254.275,191.823l-11.339-64.41c-0.007-0.038-0.012-0.075-0.018-0.113l-5.007,0.882
					c0.006,0.037,0.013,0.075,0.02,0.113l11.444,65.006c0,0,5.696,4.283,20.674,1.647
					C270.048,194.947,257.033,194.734,254.275,191.823z"/>
			</g>
		</g>
		<g>
			<g>
				<polygon fill="#77A4B5" points="343.132,69.558 352.626,68.788 352.794,68.123 353.634,68.707 355.327,68.569 355.178,69.778 
					358.848,72.325 358.701,73.152 342.985,70.385 				"/>
				<path fill="#8FC4DB" d="M339.83,88.315l3.155-17.931l15.716,2.767l-3.155,17.931c0,0,12.498,12.131,9.554,28.861
					c-2.946,16.731-12.228,69.455-12.228,69.455l0,0c-0.859,4.4-11.33,6.238-23.459,4.103c-12.128-2.135-21.341-7.438-20.645-11.868
					h-0.002c0,0,9.282-52.724,12.229-69.454C323.938,95.449,339.83,88.315,339.83,88.315z"/>
			</g>
			<path fill="#B2D9E7" d="M341.043,66.577c-0.246,1.401,0.689,2.735,2.089,2.981l15.716,2.767c1.4,0.246,2.735-0.689,2.981-2.089
				l0,0c0.247-1.4-0.688-2.735-2.088-2.981l-15.716-2.767C342.623,64.242,341.29,65.177,341.043,66.577L341.043,66.577z"/>
			<g>
				<polygon fill="#FFFFFF" points="348.513,89.561 351.496,72.77 356.501,73.66 353.52,90.441 				"/>
				<path fill="#FFFFFF" d="M353.908,100.862c-0.879-1.993-1.834-3.597-2.664-4.806l6.563,1.156
					c0.211,0.422,0.421,0.861,0.626,1.319c1.517,3.365,2.554,7.016,3.081,10.852c0.397,2.9,0.503,5.909,0.317,8.997l-5.037-0.887
					C357.089,111.462,356.124,105.888,353.908,100.862z"/>
				<path fill="#FFFFFF" d="M344.773,187.915l11.337-64.411c0.007-0.038,0.014-0.075,0.02-0.113l5.007,0.882
					c-0.006,0.037-0.012,0.075-0.021,0.112l-11.442,65.006c0,0-5.698,4.284-20.676,1.647
					C328.998,191.039,342.015,190.827,344.773,187.915z"/>
			</g>
		</g>
	</g>
	<g>
		<path d="M244.74,332.218c0,2.034-1.648,3.682-3.68,3.682h-7.45c-2.034,0-3.681-1.647-3.681-3.682v-25.332
			c0-2.033,1.647-3.681,3.681-3.681h7.45c2.032,0,3.68,1.647,3.68,3.681V332.218z"/>
		<path d="M372.018,332.218c0,2.034-1.648,3.682-3.68,3.682h-7.45c-2.033,0-3.682-1.647-3.682-3.682v-25.332
			c0-2.033,1.649-3.681,3.682-3.681h7.45c2.031,0,3.68,1.647,3.68,3.681V332.218z"/>
	</g>
	<g>
		<path fill="#0064AD" d="M373.433,153.245c0-0.246-0.008-0.491-0.018-0.734H228.531c-0.01,0.243-0.016,0.488-0.016,0.734
			l0.282,5.675l143.557,15.987L373.433,153.245z"/>
		<path fill="#0099D1" d="M228.797,158.92l7.953,159.898c0,9.977,8.088,18.064,18.066,18.064h4.056h84.201h4.056
			c9.979,0,18.066-8.088,18.066-18.064l7.158-143.912L228.797,158.92z"/>
	</g>
	<path fill="#0099D1" d="M379.209,151.321c0,2.728-2.21,4.938-4.939,4.938H227.675c-2.727,0-4.938-2.21-4.938-4.938v-6.902
		c0-2.726,2.211-4.937,4.938-4.937H374.27c2.729,0,4.939,2.21,4.939,4.937V151.321z"/>
	<g>
		<path fill="#FFFFFF" d="M304.766,265.37l-5.417,3.813l7.103-0.848l0.313-0.037l0.906-0.106l6.315-0.755l2.709-5.424l0.284-0.569
			l3.592-7.195l-5.508,3.876l-4.75-8.229c-1.274-1.965-2.613-2.823-3.932-2.96c-2.336-0.115-4.712,1.983-6.401,4.033
			c-0.462,0.588-0.883,1.183-1.255,1.745c-0.146,0.222-0.288,0.439-0.418,0.648c0.13,0.268,0.271,0.557,0.418,0.851
			c0.199,0.402,0.41,0.819,0.639,1.264C300.751,258.178,302.652,261.632,304.766,265.37z"/>
		<path fill="#FFFFFF" d="M319.096,291.338c-0.704-0.053-1.496-0.101-2.361-0.143c-3.033-0.146-6.975-0.23-11.27-0.267l-0.593-6.598
			l-2.817,6.575l-0.123,0.289l-0.361,0.837l-2.505,5.85l3.344,5.057l0.35,0.531l4.438,6.708l-0.605-6.708h9.502
			c2.339-0.12,3.75-0.853,4.53-1.927c1.268-1.965,0.638-5.07-0.294-7.559C319.943,293.016,319.502,292.107,319.096,291.338z"/>
		<path fill="#FFFFFF" d="M329.975,286.907c0.012-0.754-0.148-1.205-0.247-1.418l-0.117-0.201l-8.448-14.635l-9.752,5.174
			c0.605,1.016,1.338,2.306,2.114,3.688l5.335,9.239c0.19,0.288,0.625,0.979,1.138,1.922l0.03,0.003l0.159,0.289
			c0.391,0.716,0.84,1.664,1.23,2.711c0.787,2.004,1.426,4.303,1.006,6.307L329.975,286.907z"/>
		<path fill="#FFFFFF" d="M298.725,250.744c0.145-0.188,0.292-0.376,0.448-0.565c1.345-1.683,3.014-3.384,4.959-4.023h-5.407h-9.696
			c-0.657,0.368-0.969,0.73-1.104,0.923l-0.116,0.201l-8.449,14.636l9.358,5.857c0.576-1.031,1.328-2.312,2.135-3.675l5.334-9.239
			c0.154-0.311,0.535-1.032,1.094-1.947l-0.014-0.026l0.173-0.283C297.772,252.058,298.211,251.412,298.725,250.744z"/>
		<path fill="#FFFFFF" d="M275.1,291.366c1.033,0.152,2.041,0.226,2.909,0.257c0.397-0.583,0.835-1.246,1.303-1.973
			c1.646-2.553,3.688-5.927,5.868-9.628l6.01,2.784l-4.286-5.728l-0.19-0.252l-0.545-0.729l-3.813-5.093l-6.05,0.367l-0.634,0.039
			l-8.029,0.486l6.111,2.832l-4.75,8.227c-1.066,2.085-1.138,3.675-0.597,4.886C269.476,289.924,272.481,290.932,275.1,291.366z"/>
		<path fill="#FFFFFF" d="M291.035,292.711h-10.671c-0.345,0.02-1.16,0.054-2.23,0.023l-0.019,0.025l-0.331-0.009
			c-0.817-0.02-1.86-0.104-2.964-0.288c-2.13-0.32-4.439-0.918-5.963-2.283l7.552,13.08c0.644,0.387,1.117,0.476,1.348,0.496h0.233
			h16.899l0.395-11.033C294.104,292.736,292.619,292.729,291.035,292.711z"/>
	</g>
	<text transform="matrix(1 0 0 1 282.0708 204.4336)" fill="#FFFFFF" font-family="'Shruti-Bold'" font-size="18.4334">Papel</text>
	<text transform="matrix(1 0 0 1 282.0708 226.5537)" fill="#FFFFFF" font-family="'Shruti-Bold'" font-size="18.4334">Carton</text>
</g>
<g>
	<g>
		<path fill="#CCC5C2" d="M499.768,107.305l1.164-14.573c0,0-10.89-6.013-5.001-10.895c5.888-4.881,10.077,2.11,10.077,2.11
			s5.976-7.264,9.889-1.472c3.919,5.79-5.565,9.214-5.565,9.214l-2.004,15.888l-8.109,0.486"/>
		<g>
			<path fill="#D7854A" d="M501.737,106.816c-0.797-0.045-1.52-0.157-2.172-0.323c-3.987,3.497-38.435,34.939-14.568,57.777
				c1.502,1.439,2.96,2.621,4.382,3.605C498.172,158.035,518.322,131.099,501.737,106.816z"/>
			<path fill="#CA7A47" d="M501.737,106.816c16.585,24.283-3.565,51.219-12.358,61.06c22.505,15.577,34.71-22.929,34.71-22.929
				s4.343-22.812-15.712-39.068C505.723,106.674,503.542,106.918,501.737,106.816z"/>
		</g>
	</g>
	<g>
		<g>
			<path fill="#52712A" d="M456.476,112.745c0.397-2.282-0.06-4.577-1.486-6.461c-1.357-1.793-3.382-2.928-5.666-3.37
				c0.141-2.219-0.487-4.472-1.947-6.4c-2.97-3.918-8.432-5.214-13.106-3.42c-0.37-0.858-0.856-1.698-1.463-2.499
				c-3.593-4.741-9.976-6.259-14.255-3.396c-3.816,2.553-4.672,7.729-2.271,12.18c-3.941,3.297-4.8,8.764-1.814,12.703
				c1.462,1.929,3.596,3.16,5.933,3.628c-1.696,3.384-1.564,7.302,0.732,10.335c1.96,2.584,5.084,3.982,8.412,4.09
				c0.374,1.885,1.188,3.748,2.471,5.44c4.238,5.594,12.012,7.279,17.682,3.959c4.022,2.669,9.136,6.842,13.789,12.985l1.918-1.283
				l0.706-0.473l1.917-1.284c-4.287-5.655-6.767-11.11-8.202-15.405c0.06-0.091,0.112-0.182,0.168-0.274
				c4.864-4.017,5.568-11.247,1.433-16.706c-1.278-1.685-2.878-3.016-4.642-3.961L456.476,112.745z"/>
			<path fill="#93CD53" d="M465.795,150.591c-0.191,0.126-0.457,0.085-0.595-0.093l-47.056-62.09
				c-0.135-0.178-0.091-0.428,0.101-0.555c0.192-0.129,0.455-0.086,0.591,0.093l47.059,62.088
				C466.031,150.215,465.985,150.463,465.795,150.591z"/>
			<path fill="#93CD53" d="M434.11,108.773c-1.475,0.986-3.42,1.642-5.783,1.945c-1.866,0.242-3.999,0.266-6.341,0.072
				c-3.968-0.327-7.222-1.179-7.254-1.188c-0.226-0.06-0.355-0.28-0.291-0.492c0.063-0.213,0.295-0.336,0.521-0.277
				c0.033,0.009,3.218,0.844,7.113,1.164c3.553,0.291,8.44,0.202,11.542-1.875c0.192-0.127,0.458-0.085,0.593,0.094
				C434.346,108.396,434.303,108.646,434.11,108.773z"/>
			<path fill="#93CD53" d="M437.312,112.77c-0.19,0.128-0.454,0.087-0.591-0.093s-0.093-0.429,0.099-0.557
				c3.895-2.605,5.504-6.904,6.167-10.051c0.724-3.435,0.514-6.27,0.509-6.299c-0.017-0.22,0.162-0.411,0.397-0.427
				c0.231-0.016,0.434,0.148,0.452,0.369c0.007,0.119,0.22,2.973-0.524,6.513c-0.44,2.084-1.125,3.97-2.034,5.605
				C440.642,109.886,439.138,111.549,437.312,112.77z"/>
			<path fill="#93CD53" d="M444.997,123.136c-1.503,1.006-3.522,1.653-6.002,1.925c-1.956,0.214-4.208,0.196-6.692-0.055
				c-4.214-0.424-7.695-1.384-7.729-1.394c-0.224-0.063-0.353-0.285-0.287-0.497c0.067-0.212,0.305-0.333,0.528-0.27
				c0.033,0.01,3.455,0.952,7.594,1.368c3.774,0.378,8.938,0.386,12.098-1.727c0.189-0.13,0.456-0.087,0.592,0.092
				C445.233,122.761,445.188,123.009,444.997,123.136z"/>
			<path fill="#93CD53" d="M442.537,119.775c-0.189,0.13-0.458,0.087-0.595-0.094c-0.133-0.179-0.09-0.428,0.101-0.555
				c3.657-2.447,6.218-5.614,7.725-7.839c1.633-2.413,2.402-4.257,2.409-4.275c0.085-0.206,0.331-0.308,0.55-0.227
				c0.22,0.08,0.327,0.311,0.243,0.517c-0.034,0.079-0.809,1.936-2.485,4.412C448.939,114,446.305,117.253,442.537,119.775z"/>
			<path fill="#93CD53" d="M453.732,134.66c-1.446,0.968-3.239,1.621-5.329,1.938c-1.656,0.253-3.501,0.298-5.487,0.135
				c-3.366-0.279-5.938-1.051-6.048-1.083c-0.221-0.068-0.346-0.293-0.272-0.502c0.074-0.209,0.313-0.326,0.534-0.258l0,0
				c0.027,0.008,2.604,0.78,5.876,1.049c2.988,0.244,7.19,0.108,10.232-1.928c0.19-0.129,0.456-0.087,0.591,0.094
				C453.966,134.283,453.923,134.532,453.732,134.66z"/>
			<path fill="#93CD53" d="M454.332,128.112c-2.177,1.457-4.035,2.07-4.121,2.098c-0.221,0.073-0.463-0.038-0.54-0.247
				c-0.075-0.208,0.042-0.435,0.263-0.508c0.034-0.012,2.163-0.718,4.451-2.374c2.103-1.518,4.779-4.173,5.6-8.194
				c0.044-0.217,0.269-0.359,0.498-0.317c0.229,0.042,0.381,0.25,0.338,0.467c-0.386,1.892-1.186,3.657-2.378,5.248
				c-0.949,1.269-2.146,2.427-3.562,3.446C454.698,127.865,454.515,127.991,454.332,128.112z"/>
		</g>
		<g>
			<path fill="#658432" d="M468.19,112.867c1.014-2.107,1.201-4.434,0.342-6.603c-0.819-2.063-2.459-3.651-4.542-4.632
				c0.742-2.109,0.76-4.439-0.122-6.655c-1.791-4.508-6.708-7.088-11.716-6.492c-0.124-0.918-0.363-1.848-0.728-2.768
				c-2.166-5.451-7.915-8.471-12.837-6.744c-4.388,1.538-6.638,6.33-5.544,11.213c-4.717,2.228-7.051,7.298-5.25,11.83
				c0.879,2.22,2.604,3.927,4.731,4.947c-2.57,2.855-3.521,6.675-2.135,10.163c1.181,2.973,3.81,5.081,6.999,5.996
				c-0.159,1.91,0.117,3.909,0.888,5.855c2.559,6.432,9.602,9.95,15.992,8.123c3.148,3.554,6.939,8.83,9.744,15.894l2.205-0.774
				l0.812-0.285l2.208-0.772c-2.586-6.507-3.481-12.376-3.684-16.875c0.079-0.073,0.159-0.148,0.236-0.224
				c5.806-2.698,8.478-9.511,5.982-15.789c-0.771-1.939-1.946-3.612-3.395-4.957L468.19,112.867z"/>
			<path fill="#93CD53" d="M466.775,151.689c-0.218,0.076-0.465-0.028-0.548-0.235l-28.363-71.413
				c-0.083-0.205,0.028-0.437,0.249-0.514c0.219-0.077,0.466,0.027,0.546,0.236l28.365,71.413
				C467.107,151.383,466.994,151.611,466.775,151.689z"/>
			<path fill="#93CD53" d="M447.682,103.594c-1.696,0.595-3.756,0.755-6.123,0.474c-1.869-0.221-3.934-0.717-6.145-1.472
				c-3.746-1.279-6.65-2.895-6.679-2.911c-0.204-0.112-0.27-0.356-0.149-0.546c0.12-0.191,0.381-0.252,0.582-0.14
				c0.026,0.016,2.877,1.597,6.551,2.851c3.353,1.146,8.096,2.247,11.665,0.997c0.221-0.078,0.465,0.028,0.547,0.234
				C448.014,103.288,447.901,103.516,447.682,103.594z"/>
			<path fill="#93CD53" d="M449.673,108.234c-0.221,0.076-0.467-0.029-0.546-0.236c-0.081-0.207,0.028-0.436,0.249-0.512
				c4.479-1.571,7.215-5.333,8.723-8.212c1.645-3.141,2.222-5.931,2.228-5.958c0.045-0.217,0.266-0.36,0.497-0.319
				c0.228,0.041,0.381,0.25,0.337,0.467c-0.023,0.118-0.604,2.925-2.298,6.164c-1.001,1.906-2.18,3.563-3.509,4.92
				C453.684,106.257,451.771,107.499,449.673,108.234z"/>
			<path fill="#93CD53" d="M454.245,120.116c-1.731,0.607-3.861,0.741-6.327,0.4c-1.952-0.27-4.121-0.835-6.452-1.68
				c-3.953-1.433-7.051-3.207-7.082-3.225c-0.201-0.115-0.265-0.361-0.143-0.55c0.124-0.188,0.386-0.246,0.585-0.131
				c0.03,0.017,3.073,1.76,6.959,3.167c3.543,1.283,8.526,2.546,12.158,1.271c0.223-0.077,0.465,0.027,0.549,0.233
				C454.575,119.809,454.464,120.039,454.245,120.116z"/>
			<path fill="#93CD53" d="M452.79,116.271c-0.219,0.077-0.464-0.028-0.548-0.235c-0.079-0.206,0.031-0.436,0.251-0.513
				c4.208-1.476,7.553-3.911,9.618-5.695c2.241-1.933,3.492-3.527,3.505-3.544c0.138-0.177,0.403-0.215,0.594-0.084
				c0.19,0.129,0.231,0.38,0.092,0.558c-0.055,0.067-1.312,1.674-3.614,3.659C460.563,112.248,457.124,114.75,452.79,116.271z"/>
			<path fill="#93CD53" d="M459.506,133.37c-1.662,0.582-3.573,0.778-5.68,0.575c-1.666-0.157-3.464-0.563-5.336-1.204
				c-3.176-1.086-5.448-2.458-5.543-2.515c-0.196-0.119-0.253-0.366-0.126-0.55c0.126-0.187,0.391-0.239,0.589-0.12l0,0
				c0.021,0.015,2.298,1.386,5.39,2.441c2.817,0.961,6.911,1.852,10.41,0.625c0.22-0.078,0.466,0.027,0.545,0.233
				C459.841,133.062,459.727,133.293,459.506,133.37z"/>
			<path fill="#93CD53" d="M461.893,127.19c-2.507,0.878-4.471,1.019-4.559,1.025c-0.235,0.015-0.438-0.149-0.456-0.369
				c-0.019-0.221,0.159-0.413,0.396-0.428c0.036-0.002,2.285-0.168,4.954-1.211c2.446-0.955,5.765-2.869,7.664-6.556
				c0.102-0.199,0.356-0.281,0.566-0.185c0.212,0.095,0.3,0.335,0.198,0.533c-0.896,1.733-2.152,3.243-3.74,4.491
				c-1.266,0.994-2.745,1.824-4.391,2.464C462.313,127.041,462.1,127.118,461.893,127.19z"/>
		</g>
		<g>
			<path fill="#73AA37" d="M484.734,116.619c1.804-1.572,2.94-3.647,3.044-5.959c0.097-2.2-0.761-4.261-2.275-5.926
				c1.558-1.673,2.534-3.815,2.639-6.178c0.21-4.808-3.257-8.978-8.115-10.255c0.264-0.892,0.426-1.837,0.471-2.815
				c0.254-5.817-3.794-10.695-9.046-10.898c-4.679-0.182-8.732,3.411-9.74,8.312c-5.266,0.333-9.511,4.157-9.724,8.988
				c-0.106,2.368,0.774,4.568,2.314,6.286c-3.548,1.694-6,4.867-6.164,8.586c-0.138,3.171,1.415,6.076,3.978,8.08
				c-0.938,1.703-1.508,3.644-1.601,5.72c-0.302,6.86,4.737,12.672,11.384,13.316c1.433,4.424,2.747,10.668,2.414,18.203
				l2.352,0.091l0.866,0.033l2.354,0.091c0.308-6.937,1.905-12.674,3.575-16.895c0.104-0.038,0.211-0.078,0.313-0.119
				c6.461-0.369,11.738-5.674,12.03-12.369c0.093-2.067-0.302-4.04-1.08-5.806L484.734,116.619z"/>
			<path fill="#93CD53" d="M467.396,151.884c-0.234-0.008-0.417-0.196-0.406-0.417l3.351-76.158
				c0.011-0.221,0.209-0.393,0.444-0.384c0.235,0.01,0.417,0.195,0.406,0.416l-3.353,76.16
				C467.83,151.72,467.634,151.893,467.396,151.884z"/>
			<path fill="#93CD53" d="M469.663,100.594c-1.808-0.069-3.771-0.675-5.837-1.796c-1.632-0.885-3.333-2.095-5.057-3.596
				c-2.924-2.547-4.934-5.095-4.955-5.121c-0.14-0.177-0.096-0.426,0.09-0.557c0.189-0.132,0.453-0.095,0.595,0.084
				c0.019,0.025,1.991,2.52,4.858,5.017c2.618,2.277,6.534,5.022,10.344,5.171c0.23,0.009,0.415,0.195,0.403,0.417
				C470.097,100.432,469.896,100.604,469.663,100.594z"/>
			<path fill="#93CD53" d="M469.584,105.597c-0.234-0.009-0.417-0.196-0.408-0.417c0.011-0.22,0.208-0.39,0.442-0.381
				c4.776,0.185,8.853-2.284,11.431-4.386c2.813-2.295,4.498-4.657,4.516-4.681c0.131-0.183,0.393-0.233,0.588-0.113
				c0.195,0.124,0.248,0.372,0.117,0.554c-0.069,0.101-1.766,2.476-4.662,4.84c-1.709,1.395-3.482,2.49-5.265,3.257
				C474.096,105.238,471.82,105.683,469.584,105.597z"/>
			<path fill="#93CD53" d="M468.888,118.214c-1.842-0.071-3.861-0.725-5.996-1.938c-1.685-0.96-3.455-2.273-5.25-3.902
				c-3.05-2.763-5.176-5.529-5.196-5.556c-0.137-0.179-0.095-0.428,0.097-0.557c0.189-0.128,0.456-0.088,0.593,0.09
				c0.021,0.028,2.106,2.744,5.106,5.457c2.731,2.474,6.806,5.458,10.681,5.608c0.237,0.009,0.416,0.194,0.407,0.415
				C469.318,118.052,469.122,118.224,468.888,118.214z"/>
			<path fill="#93CD53" d="M469.139,114.14c-0.236-0.008-0.418-0.194-0.408-0.415c0.009-0.222,0.207-0.392,0.442-0.383
				c4.483,0.174,8.574-0.851,11.219-1.74c2.859-0.965,4.673-1.978,4.691-1.987c0.199-0.113,0.462-0.053,0.58,0.137
				c0.122,0.188,0.059,0.434-0.144,0.547c-0.078,0.043-1.903,1.063-4.844,2.054C477.963,113.268,473.76,114.32,469.139,114.14z"/>
			<path fill="#93CD53" d="M468.264,132.349c-1.773-0.068-3.612-0.588-5.473-1.54c-1.472-0.755-2.96-1.783-4.419-3.056
				c-2.479-2.161-4.007-4.252-4.073-4.34c-0.129-0.184-0.078-0.431,0.114-0.556c0.192-0.124,0.456-0.076,0.59,0.106l0,0
				c0.015,0.02,1.546,2.116,3.958,4.216c2.199,1.915,5.606,4.228,9.34,4.372c0.234,0.009,0.417,0.194,0.405,0.415
				C468.697,132.187,468.501,132.359,468.264,132.349z"/>
			<path fill="#93CD53" d="M473.015,127.522c-2.672-0.104-4.539-0.69-4.627-0.718c-0.22-0.07-0.34-0.296-0.262-0.505
				c0.076-0.208,0.314-0.319,0.537-0.248c0.034,0.01,2.176,0.677,5.067,0.69c2.65,0.011,6.496-0.542,9.77-3.247
				c0.179-0.145,0.445-0.129,0.601,0.036c0.151,0.166,0.135,0.417-0.039,0.563c-1.538,1.272-3.323,2.206-5.303,2.776
				c-1.575,0.454-3.282,0.679-5.062,0.669C473.463,127.538,473.236,127.531,473.015,127.522z"/>
		</g>
	</g>
	<g>
		<g>
			<path fill="#D7854A" d="M491.485,162.553c1.097,0.978,1.743,1.341,2.683,0.437c0.938-0.904,0.804-3.458,2.194-4.532
				c1.388-1.074,1.492,1.26,3.067-0.172c1.566-1.426,0.587-2.688,1.885-3.313c-0.802-1.377-1.665-2.937-2.552-4.665
				c-3.92-7.637-0.806-8.997-2.846-14.242c-2.042-5.245-0.083-11.007-5.481-28.75c-5.399-17.745-17.127-21.259-19.639-19.258
				c-2.509,2-7.626,3.618-12.883,23.458c-5.252,19.839,29.527,45.045,29.527,45.045c0.773,0.979,1.399,3.906,1.84,7.289
				C489.739,163.11,490.688,161.842,491.485,162.553z"/>
			<path fill="#CCC5C2" d="M507.669,172.869c-0.103-0.706-1.547-10.578-1.547-10.578s-2.059-2.604-4.808-7.318
				c-1.298,0.625-0.318,1.887-1.885,3.313c-1.575,1.433-1.68-0.902-3.067,0.172c-1.391,1.073-1.256,3.628-2.194,4.532
				c-0.939,0.905-1.586,0.542-2.683-0.437c-0.797-0.711-1.746,0.557-2.204,1.296c0.635,4.875,0.884,10.694,0.617,12.991
				c-0.45,3.891,3.577,5.287,3.577,5.287s10.635,1.259,14.44-2.345C511.721,176.178,507.772,173.574,507.669,172.869z"/>
		</g>
		<path fill="#CA7A47" d="M468.905,126.077c3.415,7.306,9.068,12.034,12.636,10.564c3.565-1.47,3.693-8.584,0.282-15.889
			c-3.411-7.306-9.068-12.036-12.633-10.565C465.622,111.656,465.496,118.77,468.905,126.077z"/>
	</g>
	<g>
		<g>
			<polygon fill="#378637" points="554.232,97.658 532.142,175.367 535.567,176.229 559.549,91.875 			"/>
			<polygon fill="#297D30" points="561.089,99.379 559.572,91.849 559.549,91.875 535.567,176.229 538.997,177.089 			"/>
		</g>
		<path fill="#82B04A" d="M556.907,100.553c-0.5,1.767-1.472,1.852-2.562,1.581c-1.09-0.274-1.885-0.804-1.381-2.571
			c0.501-1.766,3.199-3.827,3.199-3.827S557.411,98.786,556.907,100.553z"/>
		<path fill="#82B04A" d="M561.779,98.895c-0.461,1.624-1.352,1.704-2.354,1.452c-0.999-0.252-1.732-0.738-1.27-2.36
			c0.461-1.623,2.938-3.517,2.938-3.517S562.24,97.273,561.779,98.895z"/>
		<path fill="#82B04A" d="M559.943,107.376c-0.643,1.725-1.619,1.744-2.681,1.393c-1.065-0.349-1.815-0.935-1.175-2.661
			c0.642-1.726,3.5-3.589,3.5-3.589S560.585,105.65,559.943,107.376z"/>
		<path fill="#82B04A" d="M553.085,111.962c-0.346,1.799-1.307,1.961-2.416,1.772c-1.106-0.188-1.945-0.656-1.601-2.456
			c0.346-1.799,2.855-4.061,2.855-4.061S553.431,110.163,553.085,111.962z"/>
		<path fill="#82B04A" d="M556.846,118.676c-0.643,1.727-1.617,1.744-2.684,1.395c-1.063-0.351-1.814-0.935-1.171-2.661
			c0.641-1.727,3.497-3.589,3.497-3.589S557.487,116.951,556.846,118.676z"/>
		<path fill="#82B04A" d="M550.33,122.054c-0.347,1.799-1.305,1.959-2.413,1.772c-1.109-0.188-1.952-0.655-1.605-2.454
			s2.859-4.061,2.859-4.061S550.677,120.255,550.33,122.054z"/>
		<path fill="#82B04A" d="M553.41,130.754c-0.643,1.727-1.615,1.743-2.681,1.394c-1.063-0.35-1.818-0.935-1.173-2.661
			c0.644-1.726,3.498-3.589,3.498-3.589S554.054,129.028,553.41,130.754z"/>
		<path fill="#82B04A" d="M546.67,132.101c-0.305,1.583-1.148,1.727-2.127,1.56c-0.977-0.166-1.716-0.578-1.412-2.16
			c0.305-1.585,2.517-3.576,2.517-3.576S546.975,130.517,546.67,132.101z"/>
	</g>
	<g>
		<g>
			<polygon fill="#378637" points="562.615,105.046 540.521,182.757 543.95,183.616 567.93,99.266 			"/>
			<polygon fill="#297D30" points="569.469,106.768 567.955,99.237 567.93,99.266 543.95,183.616 547.38,184.478 			"/>
		</g>
		<path fill="#82B04A" d="M565.289,107.94c-0.502,1.768-1.471,1.854-2.561,1.581c-1.089-0.272-1.884-0.803-1.383-2.569
			c0.504-1.767,3.201-3.828,3.201-3.828S565.794,106.175,565.289,107.94z"/>
		<path fill="#82B04A" d="M570.163,106.285c-0.463,1.623-1.353,1.702-2.354,1.452c-1.002-0.25-1.732-0.738-1.272-2.361
			c0.463-1.622,2.94-3.515,2.94-3.515S570.624,104.663,570.163,106.285z"/>
		<path fill="#82B04A" d="M568.326,114.764c-0.644,1.727-1.617,1.744-2.685,1.394c-1.063-0.35-1.816-0.935-1.171-2.659
			c0.644-1.727,3.496-3.59,3.496-3.59S568.968,113.039,568.326,114.764z"/>
		<path fill="#82B04A" d="M561.467,119.35c-0.345,1.799-1.307,1.96-2.413,1.772c-1.11-0.188-1.95-0.656-1.603-2.455
			c0.346-1.799,2.854-4.06,2.854-4.06S561.813,117.551,561.467,119.35z"/>
		<path fill="#82B04A" d="M565.228,126.067c-0.642,1.725-1.618,1.742-2.682,1.392c-1.065-0.35-1.816-0.935-1.172-2.661
			c0.643-1.726,3.497-3.589,3.497-3.589S565.87,124.339,565.228,126.067z"/>
		<path fill="#82B04A" d="M558.715,129.443c-0.346,1.799-1.307,1.962-2.417,1.771c-1.11-0.188-1.948-0.653-1.603-2.453
			c0.344-1.799,2.856-4.062,2.856-4.062S559.061,127.644,558.715,129.443z"/>
		<path fill="#82B04A" d="M561.794,138.143c-0.644,1.726-1.618,1.743-2.685,1.395c-1.063-0.35-1.814-0.935-1.171-2.661
			c0.644-1.725,3.499-3.588,3.499-3.588S562.435,136.417,561.794,138.143z"/>
		<path fill="#82B04A" d="M555.053,139.491c-0.305,1.582-1.15,1.726-2.129,1.558c-0.975-0.165-1.713-0.575-1.411-2.16
			c0.308-1.585,2.516-3.575,2.516-3.575S555.358,137.906,555.053,139.491z"/>
	</g>
	<g>
		<g>
			<polygon fill="#378637" points="544.171,96.209 522.079,173.92 525.51,174.779 549.485,90.429 			"/>
			<polygon fill="#297D30" points="551.026,97.93 549.512,90.401 549.485,90.429 525.51,174.779 528.938,175.64 			"/>
		</g>
		<path fill="#82B04A" d="M546.846,99.104c-0.501,1.766-1.472,1.852-2.561,1.579c-1.09-0.273-1.885-0.804-1.382-2.57
			c0.503-1.767,3.201-3.827,3.201-3.827S547.35,97.336,546.846,99.104z"/>
		<path fill="#82B04A" d="M551.72,97.447c-0.461,1.623-1.354,1.701-2.355,1.452c-0.999-0.251-1.729-0.738-1.271-2.361
			c0.464-1.622,2.941-3.516,2.941-3.516S552.18,95.825,551.72,97.447z"/>
		<path fill="#82B04A" d="M549.882,105.928c-0.641,1.725-1.618,1.743-2.68,1.395c-1.064-0.352-1.816-0.936-1.173-2.661
			c0.641-1.726,3.495-3.591,3.495-3.591S550.523,104.201,549.882,105.928z"/>
		<path fill="#82B04A" d="M543.024,110.514c-0.346,1.798-1.307,1.96-2.416,1.771c-1.107-0.189-1.947-0.656-1.601-2.455
			c0.347-1.799,2.855-4.06,2.855-4.06S543.368,108.713,543.024,110.514z"/>
		<path fill="#82B04A" d="M546.782,117.228c-0.641,1.727-1.615,1.744-2.682,1.393c-1.063-0.349-1.813-0.935-1.169-2.661
			c0.641-1.725,3.497-3.588,3.497-3.588S547.426,115.502,546.782,117.228z"/>
		<path fill="#82B04A" d="M540.271,120.604c-0.345,1.801-1.308,1.963-2.414,1.773c-1.111-0.188-1.953-0.654-1.604-2.454
			c0.345-1.799,2.857-4.062,2.857-4.062S540.615,118.806,540.271,120.604z"/>
		<path fill="#82B04A" d="M543.351,129.305c-0.646,1.726-1.617,1.744-2.683,1.395c-1.063-0.351-1.816-0.935-1.175-2.66
			c0.646-1.727,3.5-3.59,3.5-3.59S543.992,127.581,543.351,129.305z"/>
		<path fill="#82B04A" d="M536.608,130.653c-0.304,1.584-1.15,1.727-2.127,1.559c-0.977-0.167-1.716-0.575-1.407-2.161
			c0.302-1.583,2.512-3.577,2.512-3.577S536.913,129.068,536.608,130.653z"/>
	</g>
	<g>
		<g>
			<polygon fill="#378637" points="532.265,89.058 510.426,166.832 506.995,165.981 530.7,81.561 			"/>
			<polygon fill="#297D30" points="525.403,87.356 530.692,81.525 530.7,81.561 506.995,165.981 503.565,165.13 			"/>
		</g>
		<path fill="#82B04A" d="M528.411,90.324c-0.497,1.767,0.301,2.296,1.391,2.564c1.09,0.272,2.061,0.182,2.559-1.585
			c0.495-1.767-0.759-4.815-0.759-4.815S528.909,88.556,528.411,90.324z"/>
		<path fill="#82B04A" d="M525.057,86.615c-0.458,1.625,0.275,2.11,1.278,2.357c1,0.248,1.892,0.167,2.348-1.458
			c0.454-1.624-0.696-4.422-0.696-4.422S525.513,84.991,525.057,86.615z"/>
		<path fill="#82B04A" d="M522.176,94.834c-0.351,1.799,0.483,2.268,1.592,2.46c1.108,0.191,2.07,0.035,2.422-1.763
			c0.355-1.798-1.144-4.747-1.144-4.747S522.528,93.036,522.176,94.834z"/>
		<path fill="#82B04A" d="M525.707,102.013c-0.646,1.725,0.101,2.311,1.164,2.665c1.063,0.353,2.039,0.339,2.688-1.385
			c0.647-1.725-0.338-4.857-0.338-4.857S526.357,100.291,525.707,102.013z"/>
		<path fill="#82B04A" d="M518.901,106.091c-0.355,1.798,0.481,2.269,1.593,2.46c1.107,0.192,2.069,0.034,2.422-1.764
			c0.354-1.798-1.144-4.747-1.144-4.747S519.254,104.293,518.901,106.091z"/>
		<path fill="#82B04A" d="M522.776,112.061c-0.652,1.724,0.096,2.31,1.158,2.664c1.063,0.354,2.04,0.339,2.688-1.385
			c0.649-1.724-0.338-4.857-0.338-4.857S523.423,110.337,522.776,112.061z"/>
		<path fill="#82B04A" d="M515.507,118.179c-0.352,1.799,0.484,2.268,1.595,2.459c1.109,0.193,2.07,0.035,2.42-1.764
			c0.354-1.798-1.146-4.747-1.146-4.747S515.859,116.382,515.507,118.179z"/>
		<path fill="#82B04A" d="M520.649,122.491c-0.572,1.518,0.088,2.034,1.022,2.346c0.935,0.312,1.795,0.298,2.364-1.218
			c0.575-1.518-0.294-4.278-0.294-4.278S521.221,120.973,520.649,122.491z"/>
	</g>
	<g>
		<g>
			<polygon fill="#378637" points="541.765,92.49 519.928,170.262 516.498,169.413 540.2,84.991 			"/>
			<polygon fill="#297D30" points="534.901,90.789 540.194,84.956 540.2,84.991 516.498,169.413 513.067,168.562 			"/>
		</g>
		<path fill="#82B04A" d="M537.912,93.755c-0.496,1.769,0.301,2.297,1.391,2.566c1.09,0.271,2.063,0.181,2.56-1.588
			c0.493-1.766-0.762-4.813-0.762-4.813S538.41,91.988,537.912,93.755z"/>
		<path fill="#82B04A" d="M534.557,90.047c-0.457,1.624,0.274,2.108,1.278,2.356c1,0.249,1.893,0.167,2.348-1.457
			c0.456-1.625-0.697-4.424-0.697-4.424S535.013,88.423,534.557,90.047z"/>
		<path fill="#82B04A" d="M531.678,98.267c-0.354,1.798,0.483,2.268,1.592,2.459c1.11,0.191,2.07,0.035,2.421-1.764
			c0.355-1.798-1.143-4.747-1.143-4.747S532.029,96.468,531.678,98.267z"/>
		<path fill="#82B04A" d="M535.211,105.444c-0.652,1.723,0.099,2.311,1.161,2.665c1.061,0.354,2.038,0.34,2.687-1.384
			c0.651-1.725-0.338-4.86-0.338-4.86S535.858,103.72,535.211,105.444z"/>
		<path fill="#82B04A" d="M528.401,109.523c-0.353,1.798,0.485,2.268,1.595,2.46c1.107,0.193,2.065,0.035,2.42-1.763
			c0.351-1.798-1.145-4.749-1.145-4.749S528.754,107.726,528.401,109.523z"/>
		<path fill="#82B04A" d="M532.273,115.493c-0.649,1.723,0.099,2.31,1.161,2.664c1.063,0.353,2.039,0.339,2.687-1.385
			c0.651-1.724-0.334-4.856-0.334-4.856S532.922,113.77,532.273,115.493z"/>
		<path fill="#82B04A" d="M525.01,121.611c-0.356,1.797,0.484,2.266,1.592,2.459c1.108,0.193,2.068,0.034,2.423-1.764
			c0.351-1.798-1.145-4.748-1.145-4.748S525.359,119.813,525.01,121.611z"/>
		<path fill="#82B04A" d="M530.149,125.921c-0.571,1.518,0.089,2.036,1.024,2.347c0.935,0.311,1.794,0.299,2.366-1.218
			c0.571-1.518-0.296-4.278-0.296-4.278S530.723,124.404,530.149,125.921z"/>
	</g>
	<g>
		<path d="M436.22,331.896c0,2.03-1.751,3.67-3.909,3.67h-7.907c-2.159,0-3.908-1.64-3.908-3.67v-25.27
			c0-2.028,1.749-3.671,3.908-3.671h7.907c2.158,0,3.909,1.643,3.909,3.671V331.896z"/>
		<path d="M571.326,331.896c0,2.03-1.749,3.67-3.908,3.67h-7.908c-2.157,0-3.908-1.64-3.908-3.67v-25.27
			c0-2.028,1.751-3.671,3.908-3.671h7.908c2.159,0,3.908,1.643,3.908,3.671V331.896z"/>
	</g>
	<g>
		<path fill="#00643E" d="M572.824,153.373c0-0.246-0.006-0.49-0.015-0.734H419.015c-0.014,0.245-0.02,0.488-0.02,0.734l0.3,5.66
			l152.388,15.948L572.824,153.373z"/>
		<path fill="#009963" d="M419.295,159.033l8.441,159.498c0,9.952,8.587,18.02,19.179,18.02h4.303h89.383h4.307
			c10.59,0,19.176-8.067,19.176-18.02l7.6-143.55L419.295,159.033z"/>
	</g>
	<path fill="#009963" d="M578.957,151.453c0,2.72-2.345,4.927-5.24,4.927H418.105c-2.896,0-5.239-2.207-5.239-4.927v-6.884
		c0-2.72,2.343-4.926,5.239-4.926h155.611c2.896,0,5.24,2.206,5.24,4.926V151.453z"/>
	<g>
		<path fill="#FFFFFF" d="M503.403,270.763l-5.416,3.613l7.104-0.804l0.312-0.036l0.906-0.101l6.315-0.716l2.709-5.138l0.284-0.538
			l3.593-6.819l-5.509,3.672l-4.751-7.795c-1.273-1.862-2.613-2.676-3.932-2.805c-2.337-0.109-4.714,1.878-6.401,3.822
			c-0.462,0.555-0.884,1.119-1.255,1.653c-0.147,0.21-0.288,0.415-0.418,0.614c0.13,0.253,0.271,0.527,0.418,0.805
			c0.199,0.381,0.41,0.777,0.639,1.197C499.39,263.947,501.29,267.221,503.403,270.763z"/>
		<path fill="#FFFFFF" d="M517.734,295.366c-0.703-0.05-1.496-0.097-2.361-0.136c-3.033-0.141-6.976-0.219-11.269-0.253
			l-0.594-6.251l-2.817,6.229l-0.123,0.274l-0.36,0.794l-2.505,5.54l3.342,4.791l0.352,0.504l4.438,6.354l-0.606-6.354h9.503
			c2.339-0.113,3.751-0.807,4.529-1.823c1.269-1.863,0.639-4.807-0.294-7.163C518.58,296.954,518.141,296.095,517.734,295.366z"/>
		<path fill="#FFFFFF" d="M528.613,291.167c0.012-0.713-0.148-1.142-0.246-1.343l-0.117-0.191l-8.448-13.866l-9.754,4.904
			c0.606,0.96,1.338,2.184,2.115,3.492l5.334,8.755c0.192,0.272,0.627,0.929,1.139,1.821l0.03,0.003l0.157,0.274
			c0.394,0.68,0.84,1.576,1.231,2.566c0.788,1.9,1.427,4.077,1.007,5.977L528.613,291.167z"/>
		<path fill="#FFFFFF" d="M497.363,256.906c0.144-0.179,0.291-0.357,0.446-0.537c1.346-1.594,3.016-3.206,4.96-3.812h-5.406h-9.697
			c-0.657,0.349-0.969,0.692-1.104,0.874l-0.116,0.19l-8.45,13.865l9.359,5.553c0.576-0.979,1.328-2.192,2.135-3.482l5.334-8.754
			c0.156-0.295,0.536-0.979,1.096-1.846l-0.016-0.023l0.175-0.271C496.412,258.149,496.85,257.537,497.363,256.906z"/>
		<path fill="#FFFFFF" d="M473.739,295.393c1.032,0.145,2.04,0.213,2.907,0.243c0.398-0.552,0.837-1.182,1.305-1.869
			c1.645-2.418,3.688-5.616,5.867-9.12l6.011,2.637l-4.287-5.428l-0.189-0.236l-0.546-0.693l-3.812-4.824l-6.05,0.348l-0.635,0.036
			l-8.028,0.462l6.111,2.683l-4.751,7.794c-1.065,1.978-1.137,3.483-0.597,4.63C468.113,294.026,471.12,294.98,473.739,295.393z"/>
		<path fill="#FFFFFF" d="M489.673,296.665h-10.672c-0.345,0.02-1.159,0.051-2.229,0.024l-0.019,0.023l-0.331-0.009
			c-0.817-0.019-1.86-0.098-2.964-0.273c-2.131-0.303-4.439-0.87-5.964-2.163l7.552,12.395c0.646,0.364,1.118,0.45,1.349,0.469
			h0.232h16.9l0.395-10.452C492.742,296.69,491.258,296.683,489.673,296.665z"/>
	</g>
	<text transform="matrix(1.0555 0 0 1 465.9746 205.6899)" fill="#FFFFFF" font-family="'Shruti-Bold'" font-size="17.4646">Papel</text>
	<text transform="matrix(1.0555 0 0 1 465.9746 226.6475)" fill="#FFFFFF" font-family="'Shruti-Bold'" font-size="17.4646">Carton</text>
</g>
<g>
	<g>
		<polygon fill="#570C0C" points="679.294,70.442 688.592,68.438 688.666,67.78 689.581,68.226 691.239,67.869 691.259,69.047 
			695.243,70.997 695.213,71.806 679.266,71.255 		"/>
		<path fill="#570C0C" d="M678.612,88.847l0.653-17.592l15.947,0.551l-0.652,17.596c0,0,14.052,9.95,13.442,26.364
			c-0.607,16.417-2.527,68.15-2.527,68.15l0,0c-0.245,4.329-10.361,7.485-22.669,7.058c-12.309-0.428-22.165-4.278-22.088-8.611l0,0
			c0,0,1.921-51.735,2.529-68.149C663.859,97.799,678.612,88.847,678.612,88.847z"/>
	</g>
	<path fill="#570C0C" d="M676.817,67.867c-0.052,1.372,1.058,2.526,2.477,2.576l15.949,0.555c1.422,0.049,2.613-1.025,2.664-2.399
		l0,0c0.051-1.374-1.06-2.527-2.479-2.577l-15.948-0.552C678.061,65.419,676.866,66.491,676.817,67.867L676.817,67.867z"/>
	<g>
		<polygon fill="#FFFFFF" points="687.385,88.882 688.022,72.404 693.103,72.586 692.466,89.058 		"/>
		<path fill="#FFFFFF" d="M694.286,98.984c-1.145-1.791-2.311-3.199-3.302-4.245l6.662,0.229c0.265,0.377,0.535,0.77,0.801,1.181
			c1.968,3.02,3.498,6.38,4.55,9.981c0.794,2.723,1.311,5.594,1.554,8.575l-5.11-0.177
			C698.897,108.714,697.175,103.503,694.286,98.984z"/>
		<path fill="#FFFFFF" d="M697.247,183.574l2.346-63.198c0-0.038,0.002-0.073,0.002-0.11l5.081,0.176
			c-0.002,0.036-0.002,0.074-0.003,0.11l-2.367,63.784c0,0-5.053,4.863-20.252,4.336
			C682.054,188.672,694.916,186.732,697.247,183.574z"/>
	</g>
	<g>
		<polygon fill="#258E29" points="643.014,84.606 633.52,83.863 633.352,83.219 632.511,83.783 630.816,83.651 630.966,84.82 
			627.297,87.282 627.442,88.082 643.159,85.407 		"/>
		<path fill="#258E29" d="M646.315,102.744l-3.156-17.337l-15.717,2.675l3.156,17.338c0,0-12.499,11.73-9.555,27.909
			c2.946,16.177,12.229,67.159,12.229,67.159l0,0c0.857,4.256,11.328,6.031,23.459,3.967c12.127-2.064,21.34-7.193,20.645-11.475
			h0.003c0,0-9.283-50.983-12.229-67.161C662.207,109.642,646.315,102.744,646.315,102.744z"/>
	</g>
	<path fill="#258E29" d="M645.104,81.725c0.244,1.353-0.69,2.643-2.09,2.881l-15.717,2.676c-1.399,0.239-2.734-0.666-2.982-2.021
		l0,0c-0.246-1.352,0.69-2.643,2.09-2.881l15.717-2.676C643.521,79.467,644.855,80.37,645.104,81.725L645.104,81.725z"/>
	<g>
		<polygon fill="#FFFFFF" points="637.631,103.947 634.648,87.713 629.643,88.573 632.625,104.8 		"/>
		<path fill="#FFFFFF" d="M632.238,114.876c0.877-1.927,1.833-3.479,2.662-4.648l-6.563,1.119c-0.212,0.409-0.42,0.834-0.627,1.274
			c-1.519,3.255-2.554,6.785-3.08,10.494c-0.397,2.804-0.502,5.714-0.316,8.7l5.037-0.857
			C629.058,125.125,630.021,119.737,632.238,114.876z"/>
		<path fill="#FFFFFF" d="M641.374,199.053l-11.341-62.283c-0.006-0.036-0.013-0.072-0.019-0.109l-5.007,0.853
			c0.006,0.036,0.014,0.072,0.021,0.11l11.443,62.858c0,0,5.697,4.141,20.675,1.593
			C657.146,202.075,644.131,201.868,641.374,199.053z"/>
	</g>
	<g>
		<g>
			<polygon fill="#77A4B5" points="730.23,80.828 739.725,80.083 739.893,79.439 740.732,80.004 742.425,79.872 742.276,81.04 
				745.946,83.503 745.8,84.302 730.083,81.626 			"/>
			<path fill="#8FC4DB" d="M726.929,98.966l3.154-17.34l15.717,2.676l-3.156,17.339c0,0,12.499,11.729,9.554,27.907
				c-2.944,16.178-12.227,67.161-12.227,67.161l0,0c-0.86,4.254-11.329,6.034-23.459,3.968c-12.13-2.065-21.343-7.192-20.645-11.477
				h-0.003c0,0,9.282-50.981,12.229-67.158C711.036,105.864,726.929,98.966,726.929,98.966z"/>
		</g>
		<path fill="#B2D9E7" d="M728.141,77.945c-0.246,1.355,0.689,2.645,2.09,2.883l15.716,2.676c1.398,0.238,2.733-0.667,2.979-2.019
			l0,0c0.248-1.355-0.687-2.646-2.088-2.884l-15.715-2.675C729.722,75.688,728.388,76.591,728.141,77.945L728.141,77.945z"/>
		<g>
			<polygon fill="#FFFFFF" points="735.611,100.17 738.593,83.932 743.599,84.794 740.618,101.02 			"/>
			<path fill="#FFFFFF" d="M741.006,111.097c-0.88-1.928-1.834-3.477-2.665-4.646l6.564,1.117c0.21,0.407,0.421,0.832,0.626,1.275
				c1.517,3.254,2.555,6.784,3.08,10.493c0.398,2.804,0.504,5.713,0.317,8.699l-5.037-0.856
				C744.186,121.347,743.221,115.958,741.006,111.097z"/>
			<path fill="#FFFFFF" d="M731.87,195.274l11.337-62.282c0.008-0.036,0.014-0.073,0.02-0.11l5.008,0.854
				c-0.006,0.034-0.012,0.073-0.02,0.107l-11.442,62.858c0,0-5.698,4.143-20.677,1.593
				C716.096,198.294,729.112,198.089,731.87,195.274z"/>
		</g>
	</g>
	<g>
		<path d="M626.928,330.512c0,2.014-1.69,3.65-3.777,3.65h-7.642c-2.088,0-3.777-1.637-3.777-3.65v-25.134
			c0-2.017,1.689-3.651,3.777-3.651h7.642c2.087,0,3.777,1.635,3.777,3.651V330.512z"/>
		<path d="M757.511,330.512c0,2.014-1.69,3.65-3.775,3.65h-7.644c-2.086,0-3.775-1.637-3.775-3.65v-25.134
			c0-2.017,1.689-3.651,3.775-3.651h7.644c2.085,0,3.775,1.635,3.775,3.651V330.512z"/>
	</g>
	<path fill="#FFFFFF" stroke="#000000" stroke-miterlimit="10" d="M610.57,155.945l8.161,161.271
		c0,9.897,8.298,17.923,18.533,17.923h4.163h86.389h4.161c10.237,0,18.535-8.025,18.535-17.923l7.344-161.271H610.57z"/>
	<path fill="#FFFFFF" stroke="#000000" stroke-miterlimit="10" d="M764.889,151.047c0,2.705-2.269,4.898-5.065,4.898H609.42
		c-2.798,0-5.066-2.193-5.066-4.898V144.2c0-2.706,2.269-4.9,5.066-4.9h150.403c2.797,0,5.065,2.194,5.065,4.9V151.047z"/>
	<path fill="#B4AFAA" d="M757.79,157.396c0-0.243,0.076-1.209,0.066-1.451H610.57c0,0.89,0,0.89,0,1.136v2.249l146.273,18.835
		L757.79,157.396z"/>
	<g>
		<path d="M690.577,265.15l-5.415,3.688l7.102-0.822l0.313-0.036l0.906-0.102l6.315-0.732l2.709-5.241l0.283-0.552l3.592-6.961
			l-5.507,3.75l-4.751-7.955c-1.273-1.901-2.613-2.73-3.932-2.863c-2.336-0.111-4.712,1.917-6.401,3.9
			c-0.462,0.567-0.882,1.144-1.256,1.687c-0.146,0.215-0.286,0.426-0.418,0.628c0.13,0.26,0.272,0.539,0.418,0.823
			c0.2,0.388,0.41,0.793,0.64,1.222C686.563,258.193,688.464,261.535,690.577,265.15z"/>
		<path d="M704.908,290.26c-0.703-0.05-1.496-0.1-2.361-0.139c-3.033-0.144-6.974-0.223-11.271-0.259l-0.593-6.38l-2.816,6.36
			l-0.123,0.278l-0.362,0.811l-2.505,5.655l3.346,4.891l0.35,0.51l4.437,6.488l-0.604-6.488h9.502c2.34-0.112,3.75-0.82,4.53-1.858
			c1.268-1.902,0.638-4.907-0.294-7.311C705.756,291.881,705.314,291.004,704.908,290.26z"/>
		<path d="M715.787,285.974c0.012-0.728-0.148-1.166-0.248-1.369l-0.116-0.197l-8.449-14.15l-9.751,5.005
			c0.604,0.98,1.339,2.229,2.114,3.563l5.336,8.936c0.188,0.278,0.624,0.947,1.137,1.856l0.03,0.006l0.159,0.279
			c0.39,0.693,0.84,1.608,1.229,2.619c0.786,1.941,1.426,4.164,1.006,6.103L715.787,285.974z"/>
		<path d="M684.536,251.007c0.146-0.183,0.293-0.365,0.449-0.548c1.344-1.626,3.014-3.272,4.959-3.891h-5.408h-9.694
			c-0.657,0.356-0.97,0.708-1.104,0.894l-0.117,0.195l-8.448,14.151l9.357,5.664c0.576-0.999,1.328-2.235,2.136-3.554l5.335-8.935
			c0.153-0.302,0.534-0.998,1.092-1.882l-0.012-0.027l0.172-0.272C683.584,252.276,684.023,251.651,684.536,251.007z"/>
		<path d="M660.911,290.288c1.035,0.146,2.042,0.215,2.91,0.247c0.396-0.565,0.834-1.206,1.303-1.906
			c1.646-2.471,3.688-5.732,5.868-9.312l6.01,2.694l-4.285-5.541l-0.19-0.243l-0.544-0.707l-3.813-4.922l-6.05,0.354l-0.635,0.036
			l-8.028,0.471l6.111,2.739l-4.75,7.957c-1.066,2.016-1.138,3.555-0.597,4.722C655.289,288.892,658.294,289.866,660.911,290.288z"
			/>
		<path d="M676.847,291.586h-10.67c-0.345,0.02-1.161,0.051-2.23,0.025l-0.02,0.022l-0.33-0.009c-0.817-0.017-1.86-0.1-2.965-0.278
			c-2.13-0.311-4.438-0.886-5.963-2.206l7.554,12.647c0.644,0.37,1.116,0.457,1.347,0.479h0.234h16.898l0.395-10.666
			C679.915,291.611,678.431,291.604,676.847,291.586z"/>
	</g>
	<text transform="matrix(1.0342 0 0 1 661.1182 205.0669)" font-family="'Shruti-Bold'" font-size="17.8244">Vidrio</text>
</g>
</svg>
