<?xml version="1.0" encoding="iso-8859-1"?>
<!-- Generator: Adobe Illustrator 16.0.0, SVG Export Plug-In . SVG Version: 6.00 Build 0)  -->
<!DOCTYPE svg PUBLIC "-//W3C//DTD SVG 1.1//EN" "http://www.w3.org/Graphics/SVG/1.1/DTD/svg11.dtd">
<svg version="1.1" id="Capa_1" xmlns="http://www.w3.org/2000/svg" xmlns:xlink="http://www.w3.org/1999/xlink" x="0px" y="0px"
	 width="546.478px" height="546.478px" viewBox="0 0 546.478 546.478" style="enable-background:new 0 0 546.478 546.478;"
	 xml:space="preserve">
<g>
	<g>
		<path d="M67.623,285.789h9.714v250.977c0,5.367,4.348,9.713,9.712,9.713h372.466c5.367,0,9.717-4.346,9.717-9.713V285.789h9.712
			c5.105,0,9.964-2.114,13.315-5.806c3.351-3.691,4.989-8.723,4.504-13.805l-36.828-183.51c-1.204-9.768-9.708-17.345-19.598-17.345
			h-45.877c-0.364,0-0.653-0.292-0.653-0.651V18.78c0-10.361-8.434-18.78-18.775-18.78h-21.739c-10.361,0-18.776,8.429-18.776,18.78
			v45.892c0,0.359-0.294,0.651-0.653,0.651H104.096c-9.932,0-18.395,7.612-19.511,17.437L49.823,265.342l-0.128,0.934
			c-0.422,5.073,1.263,10.078,4.635,13.749C57.689,283.689,62.538,285.789,67.623,285.789z M223.655,455.843
			c0,5.357-4.35,9.707-9.717,9.707h-50.141c-5.372,0-9.724-4.35-9.724-9.707v-108.36c0-5.372,4.352-9.727,9.724-9.727h50.141
			c5.367,0,9.717,4.359,9.717,9.727V455.843L223.655,455.843z M391.913,455.843c0,5.357-4.341,9.707-9.717,9.707h-50.139
			c-5.367,0-9.717-4.35-9.717-9.707v-108.36c0-5.372,4.35-9.727,9.717-9.727h50.139c5.376,0,9.717,4.359,9.717,9.727V455.843z
			 M102.465,85.765l0.129-0.931c0.053-0.663,0.842-1.376,1.502-1.376H333.85c10.356,0,18.775-8.429,18.775-18.781V18.78
			c0-0.364,0.29-0.653,0.653-0.653h21.739c0.369,0,0.653,0.29,0.653,0.653v45.892c0,10.356,8.429,18.775,18.78,18.775h45.883
			c0.686,0,1.54,0.78,1.601,1.466l36.674,182.739l-111.8,0.056c-3.794-1.433-7.431-4.014-9.311-7.105L279.814,133.17
			c-2.794-4.583-7.188-4.503-9.806,0.189l-71.012,127.063c-1.794,3.208-5.421,5.899-9.234,7.339l-121.96,0.037L102.465,85.765z"/>
	</g>
</g>
<g>
</g>
<g>
</g>
<g>
</g>
<g>
</g>
<g>
</g>
<g>
</g>
<g>
</g>
<g>
</g>
<g>
</g>
<g>
</g>
<g>
</g>
<g>
</g>
<g>
</g>
<g>
</g>
<g>
</g>
</svg>
