<?xml version="1.0" encoding="utf-8"?>
<!-- Generator: Adobe Illustrator 16.0.3, SVG Export Plug-In . SVG Version: 6.00 Build 0)  -->
<!DOCTYPE svg PUBLIC "-//W3C//DTD SVG 1.1//EN" "http://www.w3.org/Graphics/SVG/1.1/DTD/svg11.dtd">
<svg version="1.1" id="Capa_1" xmlns="http://www.w3.org/2000/svg" xmlns:xlink="http://www.w3.org/1999/xlink" x="0px" y="0px"
	 width="1000px" height="286px" viewBox="0 0 1000 286" enable-background="new 0 0 1000 286" xml:space="preserve">
<g>
	<text transform="matrix(1 0 0 1 50.999 222.127)"><tspan x="0" y="0" fill="#FCDB51" font-family="'LouisGeorgeCafe'" font-size="241.0774">Syn</tspan><tspan x="375.742" y="0" font-family="'LouisGeorgeCafe'" font-size="241.0774">ec   </tspan><tspan x="797.038" y="0" fill="#5EB760" font-family="'LouisGeorgeCafe'" font-size="241.0774">r</tspan></text>
	<g>
		<g>
			
				<linearGradient id="SVGID_1_" gradientUnits="userSpaceOnUse" x1="702.8184" y1="201.8594" x2="794.8623" y2="201.8594" gradientTransform="matrix(0.9972 0.0745 -0.0745 0.9972 14.0028 -40.652)">
				<stop  offset="0" style="stop-color:#8CC63F"/>
				<stop  offset="1" style="stop-color:#8CC63F"/>
			</linearGradient>
			<path fill="url(#SVGID_1_)" d="M730.231,219.766c0,0-27.796-41.533-29.846-14.085c-2.05,27.45,91.136,15.59,91.136,15.59
				l-38.059,12.841L730.231,219.766z"/>
			
				<linearGradient id="SVGID_2_" gradientUnits="userSpaceOnUse" x1="692.0107" y1="207.4785" x2="816.502" y2="207.4785" gradientTransform="matrix(0.9972 0.0745 -0.0745 0.9972 14.0028 -40.652)">
				<stop  offset="0" style="stop-color:#006837"/>
				<stop  offset="0.2727" style="stop-color:#18883F"/>
				<stop  offset="0.5455" style="stop-color:#2AA145"/>
				<stop  offset="0.7955" style="stop-color:#35B049"/>
				<stop  offset="1" style="stop-color:#39B54A"/>
			</linearGradient>
			<path fill="url(#SVGID_2_)" d="M703.07,208.676c22.761-15.765,34.237,15.581,45.749,20.549
				c12.236,5.279,22.067-4.283,50.804-16.135c41.687-4.636-19.851,29.647-50.344,24.599
				C735.642,237.521,657.725,209.244,703.07,208.676z"/>
		</g>
		<g>
			
				<linearGradient id="SVGID_3_" gradientUnits="userSpaceOnUse" x1="167.0576" y1="-242.8613" x2="259.1016" y2="-242.8613" gradientTransform="matrix(-0.5098 0.8603 -0.8603 -0.5098 614.8503 -174.3676)">
				<stop  offset="0" style="stop-color:#8CC63F"/>
				<stop  offset="1" style="stop-color:#8CC63F"/>
			</linearGradient>
			<path fill="url(#SVGID_3_)" d="M719.045,117.371c0,0,49.559-6.452,25.878-20.482c-23.682-14.031-54.458,74.723-54.458,74.723
				l5.405-39.802L719.045,117.371z"/>
			
				<linearGradient id="SVGID_4_" gradientUnits="userSpaceOnUse" x1="156.25" y1="-237.2422" x2="280.7402" y2="-237.2422" gradientTransform="matrix(-0.5098 0.8603 -0.8603 -0.5098 614.8503 -174.3676)">
				<stop  offset="0" style="stop-color:#006837"/>
				<stop  offset="0.2727" style="stop-color:#18883F"/>
				<stop  offset="0.5455" style="stop-color:#2AA145"/>
				<stop  offset="0.7955" style="stop-color:#35B049"/>
				<stop  offset="1" style="stop-color:#39B54A"/>
			</linearGradient>
			<path fill="url(#SVGID_4_)" d="M741.048,97.965c4.011,27.394-29.172,23.751-38.734,31.857
				c-10.166,8.615-5.966,21.672-8.116,52.682c-14.367,39.408-17.742-30.955,0.329-56.032
				C700.734,114.328,760.686,57.086,741.048,97.965z"/>
		</g>
		<g>
			
				<linearGradient id="SVGID_5_" gradientUnits="userSpaceOnUse" x1="568.4932" y1="102.5977" x2="660.5439" y2="102.5977" gradientTransform="matrix(-0.409 -0.9125 0.9125 -0.409 963.1598 756.1842)">
				<stop  offset="0" style="stop-color:#8CC63F"/>
				<stop  offset="1" style="stop-color:#8CC63F"/>
			</linearGradient>
			<path fill="url(#SVGID_5_)" d="M815.78,165.52c0,0-23.303,44.211,1.813,32.953c25.119-11.26-29.656-87.578-29.656-87.578
				l29.404,27.366L815.78,165.52z"/>
			
				<linearGradient id="SVGID_6_" gradientUnits="userSpaceOnUse" x1="557.6855" y1="108.2178" x2="682.1846" y2="108.2178" gradientTransform="matrix(-0.409 -0.9125 0.9125 -0.409 963.1598 756.1842)">
				<stop  offset="0" style="stop-color:#006837"/>
				<stop  offset="0.2727" style="stop-color:#18883F"/>
				<stop  offset="0.5455" style="stop-color:#2AA145"/>
				<stop  offset="0.7955" style="stop-color:#35B049"/>
				<stop  offset="1" style="stop-color:#39B54A"/>
			</linearGradient>
			<path fill="url(#SVGID_6_)" d="M818.948,194.687c-24.695-12.519-2.588-37.528-3.696-50.017
				c-1.178-13.274-14.267-17.37-38.365-37.006c-23.916-34.458,35.522,3.352,45.592,32.574
				C828.819,152.313,841.026,234.299,818.948,194.687z"/>
		</g>
	</g>
</g>
</svg>
